<svg width="22" height="24" viewBox="0 0 22 24" fill="none" xmlns="http://www.w3.org/2000/svg">
<g clip-path="url(#clip0_421_2)">
<path d="M10.9369 24C7.91509 24 4.88061 24 1.85877 24C0.594399 24 -0.0377847 23.3735 0.000146297 22.1687C0.113939 18.1084 3.45187 14.6988 7.71279 14.3976C10.2415 14.2169 12.7955 14.0964 15.3116 14.5301C19.0795 15.1807 22.0381 18.6747 22.0001 22.3373C22.0001 23.3735 21.33 24 20.2174 24C17.1197 24 14.0346 24 10.9369 24V24ZM11.0128 22.5903C13.9461 22.5903 16.8921 22.5903 19.8254 22.5903C20.3059 22.5903 20.5588 22.506 20.5082 21.9638C20.23 18.506 17.4611 15.8916 13.807 15.7711C11.8978 15.7108 9.98865 15.759 8.0921 15.7711C7.72543 15.7711 7.34612 15.8193 6.9921 15.9036C3.91969 16.5783 2.07371 18.5663 1.51739 21.759C1.39095 22.506 1.46681 22.5903 2.26336 22.5903C5.18405 22.5903 8.0921 22.5903 11.0128 22.5903V22.5903Z" fill="#E61965"/>
<path d="M17.2332 6.03616C17.2332 9.39761 14.5021 11.9639 10.9619 11.9639C7.47225 11.9639 4.75385 9.34941 4.74121 6.03616C4.74121 2.62652 7.48489 -0.060224 10.9998 1.69273e-05C14.9952 0.0602579 17.3722 3.10845 17.2205 6.03616H17.2332ZM11.0125 10.5181C13.7056 10.5181 15.8044 8.50604 15.7791 5.93978C15.7539 3.39761 13.6044 1.40966 10.9113 1.43375C8.31937 1.45785 6.22052 3.48194 6.19523 5.96387C6.16995 8.50604 8.30673 10.5181 10.9998 10.506L11.0125 10.5181Z" fill="#E61965"/>
</g>
<defs>
<clipPath id="clip0_421_2">
<rect width="22" height="24" fill="white"/>
</clipPath>
</defs>
</svg>
